<svg width="18" height="20" viewBox="0 0 18 20" fill="none" xmlns="http://www.w3.org/2000/svg">
<path d="M17.4949 8.19961C15.7752 8.20372 14.0976 7.6674 12.6992 6.66641V13.6477C12.6987 14.9407 12.3035 16.2027 11.5664 17.265C10.8293 18.3274 9.78548 19.1393 8.57445 19.5924C7.36342 20.0455 6.04293 20.118 4.78956 19.8003C3.53619 19.4826 2.40968 18.7899 1.56066 17.8147C0.711631 16.8395 0.180564 15.6283 0.0384657 14.3431C-0.103632 13.058 0.150011 11.76 0.765481 10.6229C1.38095 9.48578 2.32891 8.56366 3.4826 7.97983C4.6363 7.39601 5.94073 7.17832 7.22149 7.35586V10.8672C6.63541 10.6828 6.00607 10.6884 5.42334 10.8831C4.84061 11.0777 4.33429 11.4515 3.97668 11.9511C3.61907 12.4507 3.42847 13.0505 3.43209 13.6649C3.43571 14.2793 3.63336 14.8768 3.99683 15.3721C4.3603 15.8675 4.87099 16.2353 5.45597 16.4231C6.04096 16.6109 6.67032 16.609 7.25418 16.4178C7.83805 16.2265 8.34655 15.8557 8.70709 15.3582C9.06762 14.8607 9.26174 14.262 9.26172 13.6477V0H12.6992C12.6968 0.290289 12.7212 0.580182 12.7719 0.866016C12.8913 1.50409 13.1397 2.1111 13.5018 2.6499C13.8639 3.1887 14.3321 3.64796 14.8777 3.99961C15.6541 4.51293 16.5642 4.78652 17.4949 4.78633V8.19961Z" fill="#002249"/>
</svg>
